<?xml version="1.0" encoding="utf-8"?>
<!-- Generator: Adobe Illustrator 24.1.2, SVG Export Plug-In . SVG Version: 6.00 Build 0)  -->
<svg version="1.1" id="Layer_1" xmlns="http://www.w3.org/2000/svg" xmlns:xlink="http://www.w3.org/1999/xlink" x="0px" y="0px"
	 viewBox="0 0 1920 469" style="enable-background:new 0 0 1920 469;" xml:space="preserve">
<style type="text/css">
	.st0{fill:#EEF2F5;}
	.st1{opacity:0.36;}
	.st2{fill:#006FAE;}
	.st3{fill:#4EC1EE;}
	.st4{opacity:0.17;}
	.st5{opacity:0.15;}
	.st6{opacity:0.21;}
	.st7{opacity:0.11;}
</style>
<path class="st0" d="M1920,11.2c0,0-1351.2,418.5-1574.7,442.8C2.6,491.3,0,223.2,0,223.2V471h1920V11.2z"/>
<g class="st1">
	<g>
		<path class="st2" d="M180.6,272.1l-16.9,17c4.7,4.7,7.6,11.1,7.6,18.3c0,14.3-11.6,25.9-25.9,25.9c-14.3,0-25.8-11.6-25.8-25.9
			c0-7.1,2.9-13.6,7.6-18.3l-17-17c-9,9-14.6,21.5-14.6,35.3c0,27.5,22.3,49.8,49.8,49.8c27.5,0,49.8-22.3,49.8-49.8
			C195.2,293.6,189.6,281.1,180.6,272.1z"/>
		<path class="st3" d="M145.3,281.5c7.1,0,13.6,2.9,18.3,7.6l16.9-17c-9-9-21.5-14.6-35.2-14.6c-13.7,0-26.2,5.6-35.2,14.6l17,17
			C131.8,284.4,138.2,281.5,145.3,281.5z"/>
	</g>
</g>
<g class="st1">
	<g>
		<path class="st2" d="M1157.1,756l-34.8,34.9c9.6,9.6,15.6,22.9,15.6,37.6c0,29.4-23.8,53.2-53.2,53.2c-29.3,0-53.1-23.8-53.1-53.2
			c0-14.7,6-28,15.6-37.6l-34.9-34.9c-18.6,18.5-30.1,44.2-30.1,72.5c0,56.6,45.9,102.5,102.4,102.5c56.6,0,102.5-45.9,102.5-102.5
			C1187.1,800.2,1175.6,774.5,1157.1,756z"/>
		<path class="st3" d="M1084.6,775.3c14.7,0,28,6,37.6,15.6l34.8-34.9c-18.5-18.5-44.1-30-72.4-30c-28.3,0-53.9,11.5-72.4,30
			l34.9,34.9C1056.7,781.2,1070,775.3,1084.6,775.3z"/>
	</g>
</g>
<g class="st4">
	<g>
		<path class="st2" d="M888.4,260.4l-34.8,34.9c9.6,9.6,15.6,22.9,15.6,37.6c0,29.4-23.8,53.2-53.2,53.2
			c-29.3,0-53.1-23.8-53.1-53.2c0-14.7,6-28,15.6-37.6l-34.9-34.9c-18.6,18.5-30.1,44.2-30.1,72.5c0,56.6,45.9,102.5,102.4,102.5
			c56.6,0,102.5-45.9,102.5-102.5C918.4,304.6,907,279,888.4,260.4z"/>
		<path class="st3" d="M816,279.7c14.7,0,28,6,37.6,15.6l34.8-34.9c-18.5-18.5-44.1-30-72.4-30c-28.3,0-53.9,11.5-72.4,30l34.9,34.9
			C788.1,285.7,801.3,279.7,816,279.7z"/>
	</g>
</g>
<g class="st5">
	<g>
		<path class="st2" d="M492.8,48l-9,9c2.5,2.5,4,5.9,4,9.7c0,7.6-6.1,13.7-13.7,13.7c-7.6,0-13.7-6.1-13.7-13.7c0-3.8,1.5-7.2,4-9.7
			l-9-9c-4.8,4.8-7.7,11.4-7.7,18.7c0,14.6,11.8,26.4,26.4,26.4c14.6,0,26.4-11.8,26.4-26.4C500.5,59.4,497.6,52.8,492.8,48z"/>
		<path class="st3" d="M474.2,53c3.8,0,7.2,1.5,9.7,4l9-9c-4.8-4.8-11.4-7.7-18.6-7.7c-7.3,0-13.9,2.9-18.6,7.7l9,9
			C467,54.5,470.4,53,474.2,53z"/>
	</g>
</g>
<g class="st6">
	<g>
		<path class="st2" d="M1467.4,230.2l-13.1,13.1c3.6,3.6,5.9,8.6,5.9,14.1c0,11-9,20-20,20c-11,0-20-9-20-20
			c0-5.5,2.2-10.5,5.9-14.2l-13.1-13.1c-7,7-11.3,16.6-11.3,27.3c0,21.3,17.3,38.6,38.6,38.6c21.3,0,38.6-17.3,38.6-38.6
			C1478.7,246.9,1474.4,237.2,1467.4,230.2z"/>
		<path class="st3" d="M1440.1,237.5c5.5,0,10.5,2.2,14.1,5.9l13.1-13.1c-7-7-16.6-11.3-27.3-11.3c-10.6,0-20.3,4.3-27.2,11.3
			l13.1,13.1C1429.6,239.7,1434.6,237.5,1440.1,237.5z"/>
	</g>
</g>
<g class="st7">
	<g>
		<path class="st2" d="M1984.1,237.8l-28.2,28.3c7.8,7.8,12.6,18.6,12.6,30.5c0,23.8-19.3,43.1-43.1,43.1
			c-23.8,0-43.1-19.3-43.1-43.1c0-11.9,4.8-22.7,12.7-30.5l-28.3-28.3c-15.1,15-24.4,35.8-24.4,58.8c0,45.9,37.2,83.1,83.1,83.1
			c45.9,0,83.1-37.2,83.1-83.1C2008.5,273.6,1999.2,252.9,1984.1,237.8z"/>
		<path class="st3" d="M1925.4,253.5c11.9,0,22.7,4.8,30.5,12.6l28.2-28.3c-15-15-35.8-24.3-58.7-24.3c-22.9,0-43.7,9.3-58.7,24.3
			l28.3,28.3C1902.8,258.3,1913.5,253.5,1925.4,253.5z"/>
	</g>
</g>
<g class="st1">
	<g>
		<path class="st2" d="M1777.1,521.2l-21,21c5.8,5.8,9.4,13.8,9.4,22.7c0,17.7-14.4,32.1-32.1,32.1c-17.7,0-32-14.4-32-32.1
			c0-8.9,3.6-16.9,9.4-22.7l-21-21c-11.2,11.2-18.1,26.6-18.1,43.7c0,34.1,27.7,61.8,61.8,61.8c34.1,0,61.8-27.7,61.8-61.8
			C1795.2,547.8,1788.3,532.4,1777.1,521.2z"/>
		<path class="st3" d="M1733.5,532.9c8.9,0,16.9,3.6,22.7,9.4l21-21c-11.2-11.2-26.6-18.1-43.7-18.1c-17,0-32.5,6.9-43.7,18.1l21,21
			C1716.6,536.4,1724.6,532.9,1733.5,532.9z"/>
	</g>
</g>
</svg>
