<?xml version="1.0" encoding="utf-8"?>
<!-- Generator: Adobe Illustrator 24.1.2, SVG Export Plug-In . SVG Version: 6.00 Build 0)  -->
<svg version="1.1" id="Layer_1" xmlns="http://www.w3.org/2000/svg" xmlns:xlink="http://www.w3.org/1999/xlink" x="0px" y="0px"
	 viewBox="0 0 1568 600" style="enable-background:new 0 0 1568 600;" xml:space="preserve">
<style type="text/css">
	.st0{fill:#006FAE;}
	.st1{fill:#46C7F4;}
</style>
<g>
	<path class="st0" d="M502.5,115l-88.9,89.1c24.5,24.5,39.7,58.5,39.7,95.9c0,74.9-60.8,135.7-135.7,135.7
		c-74.9,0-135.7-60.8-135.7-135.7c0-37.5,15.2-71.5,39.9-96.1l-89-89C85.4,162.3,56,227.7,56,300c0,144.5,117.1,261.6,261.6,261.6
		c144.5,0,261.6-117.1,261.6-261.6C579.2,227.7,549.9,162.3,502.5,115z"/>
	<path class="st1" d="M317.6,164.3c37.5,0,71.4,15.2,96,39.8l88.9-89.1c-47.3-47.3-112.7-76.6-184.9-76.6
		c-72.2,0-137.5,29.2-184.8,76.5l89,89C246.3,179.4,280.2,164.3,317.6,164.3z"/>
</g>
<g>
	<path class="st0" d="M657.4,189.5c0-1.2,0.4-2.1,1.1-2.8c0.7-0.7,1.7-1,3-1h101.2c1.1,0,2.1,0.3,2.8,1c0.8,0.6,1.2,1.6,1.2,2.9
		v17.6c0,0.5,0,0.9,0,1.3c0,0.4-0.2,0.9-0.5,1.6l-63.1,75.2H763c1.1,0,2,0.3,2.8,1c0.8,0.6,1.1,1.6,1.1,3v21.7c0,1-0.4,2-1.1,2.9
		c-0.7,0.9-1.7,1.4-2.8,1.4H661.8c-1.2,0-2.1-0.4-2.9-1.1c-0.8-0.8-1.2-1.8-1.2-3.1v-18.8c0-0.9,0.2-1.7,0.6-2.3l62.9-74.2h-59.7
		c-1.3,0-2.3-0.3-3-1c-0.7-0.7-1.1-1.8-1.1-3.3V189.5z"/>
	<path class="st0" d="M930,189.5c0-1,0.3-1.9,1-2.7c0.6-0.8,1.6-1.1,2.9-1.1h28.5c0.8,0,1.7,0.2,2.5,0.6c0.9,0.4,1.6,1.1,2.3,2.1
		c7.4,11.9,14.7,23.6,22,35.2c7.3,11.6,14.6,23.3,22,35.2V189c0.2-1,0.7-1.9,1.4-2.4c0.7-0.6,1.5-0.9,2.4-0.9h24.8
		c1.2,0,2.2,0.3,3.1,1c0.8,0.7,1.2,1.6,1.2,2.8v122.2c0,1.2-0.3,2-1,2.6c-0.7,0.6-1.7,0.8-2.9,0.8h-27.8c-0.8,0-1.4-0.3-2-0.8
		c-0.6-0.5-1.2-1.2-1.8-2.1c-7.7-12.8-15.4-25.4-22.9-37.9c-7.6-12.5-15.2-25.1-23-37.9v74.9c0,1.3-0.3,2.2-0.9,2.9
		c-0.6,0.6-1.6,1-3.1,1h-24.8c-1.3,0-2.3-0.4-2.9-1.1c-0.6-0.7-0.9-1.6-0.9-2.7V189.5z"/>
	<path class="st0" d="M1066.6,189.7c0-1.2,0.3-2.2,1-2.9c0.7-0.7,1.6-1.1,2.8-1.1h86.5c1.3,0,2.3,0.4,3,1.1c0.7,0.8,1.1,1.8,1.1,3
		v21.6c0,1-0.4,1.9-1.1,2.8c-0.7,0.9-1.7,1.4-3,1.4h-56.5v21.6h43.6c1.1,0,2,0.3,2.7,0.8c0.7,0.5,1.1,1.4,1.1,2.6v18.8
		c0,0.8-0.3,1.6-1,2.4c-0.6,0.8-1.6,1.1-2.8,1.1h-43.7v22.3h58.6c2.6,0,3.9,1.3,3.9,4v21.9c0,0.6-0.2,1.1-0.7,1.6
		c-0.2,1.6-1.4,2.4-3.6,2.4h-88.1c-1.2,0-2.1-0.3-2.8-0.9c-0.7-0.6-1-1.6-1-2.8V189.7z"/>
	<path class="st0" d="M1277.2,195.1c1,0.6,1.7,1.3,2.2,2.3c0.5,0.9,0.4,2-0.3,3.3l-14.7,20.9c-0.6,1-1.3,1.6-2,1.7
		c-0.7,0.1-1.6-0.1-2.7-0.7c-2.8-2.1-6-3.8-9.4-5c-3.4-1.2-7.1-1.7-10.9-1.7c-4.8,0-9.1,0.9-13.2,2.7c-4,1.8-7.5,4.3-10.4,7.4
		c-2.9,3.1-5.2,6.8-6.8,11c-1.6,4.2-2.4,8.7-2.4,13.4c0,4.8,0.8,9.2,2.4,13.4c1.6,4.1,3.9,7.8,6.8,10.9c2.9,3.1,6.4,5.6,10.4,7.4
		c4,1.8,8.4,2.7,13.2,2.7c3.8,0,7.5-0.6,11-1.8c3.5-1.2,6.7-2.9,9.5-5c1-0.6,1.9-0.9,2.6-0.8c0.7,0.1,1.4,0.6,2.1,1.6l14.9,21.4
		c0.6,1.3,0.7,2.3,0.3,3.2c-0.5,0.9-1.2,1.6-2.2,2.2c-5.5,3.7-11.3,6.5-17.6,8.5c-6.3,2-12.9,3-19.9,3c-6.2,0-12.1-0.8-17.7-2.4
		c-5.7-1.6-11-3.8-15.9-6.7c-4.9-2.9-9.4-6.4-13.5-10.4c-4-4-7.5-8.5-10.4-13.4c-2.9-4.9-5.1-10.2-6.7-15.9
		c-1.6-5.7-2.4-11.6-2.4-17.7c0-6.2,0.8-12.1,2.4-17.7c1.6-5.7,3.8-11,6.7-15.9c2.9-5,6.4-9.5,10.4-13.5c4-4.1,8.5-7.5,13.5-10.4
		c4.9-2.9,10.2-5.1,15.9-6.7c5.7-1.6,11.6-2.4,17.7-2.4c7,0,13.5,1,19.7,2.9C1265.9,188.6,1271.7,191.4,1277.2,195.1z"/>
	<path class="st0" d="M1294.2,189.5c0-1.2,0.4-2.1,1.2-2.8c0.8-0.7,1.8-1,2.9-1h93.8c1,0,2,0.3,2.8,1c0.8,0.6,1.3,1.6,1.4,2.9v21.6
		c0,1-0.4,2-1.1,3c-0.7,1-1.8,1.4-3.1,1.4H1362V311c0,1-0.4,2-1.1,2.8c-0.8,0.8-1.7,1.3-3,1.3h-25.6c-1,0-1.9-0.4-2.8-1.2
		c-0.9-0.8-1.3-1.8-1.3-2.9v-95.4h-30c-1.2,0-2.1-0.4-2.9-1.1c-0.8-0.8-1.2-1.9-1.2-3.3V189.5z"/>
	<path class="st0" d="M1464.3,210.4L1464.3,210.4c-3.6-5.8-7.2-11.6-10.9-17.4c-0.9-1.5-1.9-3-2.8-4.6c-0.6-1-1.4-1.7-2.3-2.1
		c-0.9-0.4-1.7-0.6-2.5-0.6h-28.5c-1.3,0-2.2,0.4-2.9,1.1c-0.6,0.8-1,1.7-1,2.7v121.8c0,1,0.3,1.9,0.9,2.7c0.6,0.7,1.6,1.1,2.9,1.1
		h24.8c1.5,0,2.6-0.3,3.1-1c0.6-0.6,0.9-1.6,0.9-2.9v-74.9c7.8,12.8,15.5,25.4,23,37.9c7.6,12.5,15.2,25.1,22.9,37.9
		c0.6,0.9,1.3,1.6,1.8,2.1c0.6,0.5,1.2,0.8,2,0.8h27.8c1.2,0,2.2-0.3,2.9-0.8c0.6-0.5,1.4-1.6-0.1-3.9L1464.3,210.4z"/>
	<g>
		<path class="st1" d="M688.1,343.9c0.2,0.1,0.3,0.3,0.4,0.4c0.1,0.2,0.2,0.3,0.2,0.5c0,0.2-0.1,0.4-0.2,0.6l-1.2,2.1
			c-0.3,0.4-0.5,0.6-0.8,0.6c-0.1,0-0.2,0-0.3-0.1c-0.1,0-0.3-0.1-0.5-0.3c-1.1-0.8-2.3-1.4-3.5-1.8c-1.2-0.4-2.5-0.7-3.9-0.7
			c-2,0-3.8,0.3-5.5,1.1c-1.7,0.7-3.2,1.7-4.4,2.9c-1.2,1.2-2.2,2.6-2.9,4.2c-0.7,1.6-1.1,3.3-1.1,5.1c0,1.9,0.4,3.6,1.1,5.3
			c0.7,1.6,1.7,3,2.9,4.1c1.2,1.2,2.6,2.1,4.2,2.7c1.6,0.6,3.3,1,5,1c0.6,0,1.3,0,1.9-0.1c0.6-0.1,1.3-0.3,2-0.5
			c0.6-0.2,1.3-0.5,2-0.9c0.7-0.3,1.5-0.8,2.3-1.3c0.3-0.2,0.5-0.3,0.7-0.3c0.3,0,0.5,0.2,0.8,0.6l1.3,2.2c0.1,0.2,0.2,0.4,0.2,0.6
			c0,0.4-0.2,0.7-0.6,0.9c-1.5,1.1-3.1,1.9-4.8,2.5c-1.8,0.6-3.6,0.9-5.7,0.9c-1.7,0-3.2-0.2-4.8-0.6c-1.5-0.4-2.9-1-4.2-1.8
			c-1.3-0.8-2.5-1.7-3.6-2.8c-1.1-1.1-2-2.3-2.8-3.6c-0.8-1.3-1.4-2.7-1.8-4.2c-0.4-1.5-0.6-3.1-0.6-4.7c0-1.6,0.2-3.2,0.6-4.7
			c0.4-1.5,1-2.9,1.8-4.3c0.8-1.3,1.7-2.5,2.8-3.6c1.1-1.1,2.3-2,3.6-2.8c1.3-0.8,2.7-1.4,4.2-1.8c1.5-0.4,3.1-0.7,4.7-0.7
			c1.9,0,3.8,0.3,5.5,0.9C684.9,342,686.6,342.8,688.1,343.9z"/>
		<path class="st1" d="M715.2,371c0.3,0,0.5,0.1,0.7,0.3c0.2,0.2,0.3,0.5,0.3,0.8v2.4c0,0.3-0.1,0.5-0.3,0.7
			c-0.2,0.2-0.4,0.3-0.7,0.3h-19.8c-0.7,0-1-0.3-1-1V342c0-0.3,0.1-0.5,0.3-0.7c0.2-0.2,0.5-0.3,0.8-0.3h2.4c0.3,0,0.5,0.1,0.7,0.3
			c0.2,0.2,0.3,0.4,0.3,0.8v29H715.2z"/>
		<path class="st1" d="M736.7,340.5c1.6,0,3.2,0.2,4.7,0.6c1.5,0.4,2.9,1,4.2,1.8c1.3,0.8,2.5,1.7,3.6,2.8c1.1,1.1,2,2.3,2.8,3.6
			c0.8,1.3,1.4,2.7,1.8,4.3c0.4,1.5,0.7,3.1,0.7,4.7c0,1.6-0.2,3.2-0.6,4.7c-0.4,1.5-1,2.9-1.8,4.2c-0.8,1.3-1.7,2.5-2.8,3.6
			c-1.1,1.1-2.3,2-3.6,2.8c-1.3,0.8-2.7,1.4-4.3,1.8c-1.5,0.4-3.1,0.6-4.7,0.6c-1.7,0-3.2-0.2-4.7-0.6c-1.5-0.4-2.9-1-4.2-1.8
			c-1.3-0.8-2.5-1.7-3.6-2.8c-1.1-1.1-2-2.3-2.8-3.6c-0.8-1.3-1.4-2.7-1.8-4.2c-0.4-1.5-0.6-3.1-0.6-4.7c0-1.6,0.2-3.2,0.6-4.7
			c0.4-1.5,1-2.9,1.8-4.3c0.8-1.3,1.7-2.5,2.8-3.6c1.1-1.1,2.3-2,3.6-2.8c1.3-0.8,2.7-1.4,4.2-1.8
			C733.5,340.8,735.1,340.5,736.7,340.5z M723.4,358.3c0,1.2,0.2,2.4,0.5,3.5c0.3,1.1,0.8,2.2,1.3,3.2c0.6,1,1.3,1.9,2.1,2.7
			c0.8,0.8,1.7,1.5,2.7,2.1c1,0.6,2,1,3.2,1.3c1.1,0.3,2.3,0.5,3.5,0.5c1.2,0,2.4-0.2,3.5-0.5c1.1-0.3,2.2-0.8,3.2-1.3
			c1-0.6,1.9-1.3,2.7-2.1c0.8-0.8,1.5-1.7,2.1-2.7c0.6-1,1-2,1.3-3.2c0.3-1.1,0.5-2.3,0.5-3.5c0-1.8-0.4-3.6-1-5.2
			c-0.7-1.6-1.7-3-2.8-4.2c-1.2-1.2-2.6-2.1-4.2-2.8c-1.6-0.7-3.3-1.1-5.1-1.1c-1.2,0-2.4,0.2-3.5,0.5c-1.1,0.3-2.2,0.8-3.2,1.3
			c-1,0.6-1.9,1.3-2.7,2.1c-0.8,0.8-1.5,1.7-2.1,2.7c-0.6,1-1,2-1.3,3.2C723.6,355.9,723.4,357,723.4,358.3z"/>
		<path class="st1" d="M765.1,361.3c0,1.5,0.2,2.8,0.6,4.1c0.4,1.3,1.1,2.4,1.9,3.3c0.8,0.9,1.8,1.7,3,2.2c1.2,0.5,2.6,0.8,4.1,0.8
			c1.6,0,3.1-0.3,4.3-0.8c1.2-0.5,2.2-1.3,3-2.2c0.8-0.9,1.4-2,1.8-3.3c0.4-1.3,0.6-2.6,0.6-4.1V342c0-0.3,0.1-0.5,0.3-0.7
			c0.2-0.2,0.5-0.3,0.8-0.3h2.2c0.3,0,0.6,0.1,0.8,0.3c0.2,0.2,0.4,0.4,0.4,0.8v19.9c0,2.1-0.4,4-1.1,5.7c-0.7,1.8-1.8,3.3-3.1,4.5
			c-1.3,1.2-2.8,2.2-4.5,2.9c-1.7,0.7-3.6,1-5.5,1c-2,0-3.8-0.4-5.5-1.1c-1.7-0.7-3.2-1.8-4.5-3.1c-1.3-1.3-2.3-2.8-3.1-4.5
			c-0.7-1.7-1.1-3.6-1.1-5.5V342c0-0.2,0.1-0.5,0.3-0.7c0.2-0.2,0.4-0.3,0.7-0.3h2.5c0.2,0,0.5,0.1,0.7,0.3c0.3,0.2,0.4,0.4,0.4,0.7
			V361.3z"/>
		<path class="st1" d="M796,342.1c0-0.7,0.4-1.1,1.1-1.1h10.9c1.7,0,3.2,0.2,4.8,0.6c1.5,0.4,2.9,1,4.2,1.7c1.3,0.7,2.5,1.6,3.5,2.7
			c1,1.1,1.9,2.2,2.7,3.5c0.7,1.3,1.3,2.7,1.7,4.1c0.4,1.5,0.6,3,0.6,4.6c0,1.6-0.2,3.1-0.6,4.6c-0.4,1.5-1,2.9-1.8,4.1
			c-0.8,1.3-1.7,2.4-2.7,3.5c-1.1,1.1-2.2,1.9-3.5,2.7c-1.3,0.7-2.7,1.3-4.2,1.7c-1.5,0.4-3,0.6-4.7,0.6H797c-0.3,0-0.5-0.1-0.7-0.2
			c-0.2-0.1-0.3-0.4-0.3-0.8V342.1z M807.8,371.1c1.9,0,3.6-0.4,5.2-1.1c1.6-0.7,3-1.6,4.1-2.8c1.2-1.2,2.1-2.6,2.7-4.2
			c0.7-1.6,1-3.3,1-5c0-1.9-0.3-3.6-1-5.2c-0.7-1.6-1.6-2.9-2.8-4c-1.2-1.1-2.5-1.9-4.1-2.6c-1.6-0.6-3.3-0.9-5-0.9h-7.5v25.7H807.8
			z"/>
		<path class="st1" d="M866.3,348.5c-0.2-0.1-0.6-0.4-1.1-0.8c-0.5-0.4-1.1-0.8-1.8-1.2c-0.7-0.4-1.5-0.8-2.4-1.1
			c-0.9-0.3-1.9-0.5-2.9-0.5c-1.2,0-2.3,0.1-3.2,0.4c-0.9,0.3-1.6,0.7-2.2,1.2c-0.6,0.5-1,1-1.3,1.7c-0.3,0.6-0.4,1.2-0.4,1.9
			c0,0.9,0.3,1.6,0.9,2.2c0.6,0.6,1.3,1.1,2.3,1.5c0.9,0.4,2,0.8,3.2,1.2c1.2,0.4,2.4,0.7,3.7,1.1c1.2,0.4,2.5,0.8,3.7,1.3
			c1.2,0.5,2.3,1.1,3.2,1.8c1,0.7,1.7,1.6,2.3,2.6c0.6,1,0.9,2.2,0.9,3.6c0,1.6-0.3,3.1-1,4.4c-0.7,1.3-1.6,2.5-2.8,3.4
			c-1.2,0.9-2.6,1.7-4.1,2.2c-1.6,0.5-3.3,0.8-5.1,0.8c-1.2,0-2.4-0.1-3.6-0.4c-1.2-0.3-2.3-0.7-3.4-1.2c-1.1-0.5-2.1-1.2-3-1.9
			c-0.9-0.7-1.8-1.6-2.5-2.6c-0.2-0.2-0.3-0.5-0.3-0.7c0-0.3,0.1-0.5,0.4-0.7l1.8-1.5c0.3-0.2,0.5-0.3,0.8-0.3
			c0.2,0,0.5,0.2,0.7,0.4l0.3,0.3c0.6,0.7,1.4,1.4,2.2,1.9c0.8,0.5,1.7,1,2.5,1.3c0.8,0.3,1.6,0.6,2.4,0.8c0.8,0.2,1.4,0.3,1.9,0.3
			c1,0,1.9-0.1,2.9-0.4c1-0.3,1.9-0.6,2.7-1.1c0.8-0.5,1.5-1.2,2-2c0.5-0.8,0.8-1.7,0.8-2.8c0-0.9-0.3-1.6-0.8-2.2
			c-0.5-0.6-1.2-1.1-2.1-1.6c-0.9-0.4-1.9-0.9-3.1-1.2c-1.2-0.4-2.5-0.8-3.8-1.2c-1.9-0.5-3.5-1.1-4.8-1.7c-1.3-0.6-2.4-1.3-3.3-2
			c-0.9-0.7-1.5-1.5-1.9-2.4c-0.4-0.9-0.6-1.9-0.6-3c0-1.4,0.3-2.7,0.9-3.9c0.6-1.2,1.4-2.2,2.4-3c1-0.8,2.3-1.5,3.8-2
			c1.5-0.5,3.1-0.7,4.9-0.7c1,0,2,0.1,3.1,0.4c1.1,0.2,2.1,0.6,3.1,1c1,0.5,1.9,1,2.8,1.6c0.9,0.6,1.6,1.3,2.3,2
			c0.2,0.2,0.3,0.5,0.3,0.7c0,0.3-0.1,0.5-0.4,0.7l-1.7,1.6c-0.3,0.2-0.5,0.4-0.8,0.3C866.8,348.9,866.5,348.8,866.3,348.5z"/>
		<path class="st1" d="M894.1,340.5c1.6,0,3.2,0.2,4.7,0.6c1.5,0.4,2.9,1,4.2,1.8c1.3,0.8,2.5,1.7,3.6,2.8c1.1,1.1,2,2.3,2.8,3.6
			c0.8,1.3,1.4,2.7,1.8,4.3c0.4,1.5,0.7,3.1,0.7,4.7c0,1.6-0.2,3.2-0.6,4.7c-0.4,1.5-1,2.9-1.8,4.2c-0.8,1.3-1.7,2.5-2.8,3.6
			c-1.1,1.1-2.3,2-3.6,2.8c-1.3,0.8-2.7,1.4-4.3,1.8c-1.5,0.4-3.1,0.6-4.7,0.6c-1.6,0-3.2-0.2-4.7-0.6c-1.5-0.4-2.9-1-4.2-1.8
			c-1.3-0.8-2.5-1.7-3.6-2.8c-1.1-1.1-2-2.3-2.8-3.6c-0.8-1.3-1.4-2.7-1.8-4.2c-0.4-1.5-0.6-3.1-0.6-4.7c0-1.6,0.2-3.2,0.6-4.7
			c0.4-1.5,1-2.9,1.8-4.3c0.8-1.3,1.7-2.5,2.8-3.6c1.1-1.1,2.3-2,3.6-2.8c1.3-0.8,2.7-1.4,4.2-1.8
			C890.9,340.8,892.5,340.5,894.1,340.5z M880.8,358.3c0,1.2,0.2,2.4,0.5,3.5c0.3,1.1,0.8,2.2,1.3,3.2c0.6,1,1.3,1.9,2.1,2.7
			c0.8,0.8,1.7,1.5,2.7,2.1c1,0.6,2,1,3.2,1.3c1.1,0.3,2.3,0.5,3.5,0.5c1.2,0,2.4-0.2,3.5-0.5c1.1-0.3,2.2-0.8,3.2-1.3
			c1-0.6,1.9-1.3,2.7-2.1c0.8-0.8,1.5-1.7,2.1-2.7c0.6-1,1-2,1.3-3.2c0.3-1.1,0.5-2.3,0.5-3.5c0-1.8-0.3-3.6-1.1-5.2
			c-0.7-1.6-1.6-3-2.8-4.2c-1.2-1.2-2.6-2.1-4.2-2.8c-1.6-0.7-3.3-1.1-5.2-1.1c-1.2,0-2.4,0.2-3.5,0.5c-1.1,0.3-2.2,0.8-3.2,1.3
			c-1,0.6-1.9,1.3-2.7,2.1c-0.8,0.8-1.5,1.7-2.1,2.7c-0.6,1-1,2-1.3,3.2C881,355.9,880.8,357,880.8,358.3z"/>
		<path class="st1" d="M918.4,342.1c0-0.7,0.3-1.1,1-1.1h22c0.7,0,1.1,0.4,1.1,1.1v2.3c0,0.3-0.1,0.5-0.3,0.8
			c-0.2,0.2-0.5,0.3-0.8,0.3h-18.5v11.4c2.5,0,4.9,0,7.3,0c2.4,0,4.8,0,7.3,0c0.3,0,0.5,0.1,0.7,0.3c0.2,0.2,0.3,0.5,0.3,0.8v2.3
			c0,0.3-0.1,0.5-0.3,0.7c-0.2,0.2-0.4,0.3-0.8,0.3h-14.6v13.1c0,0.7-0.4,1-1.1,1h-2.4c-0.7,0-1-0.3-1-1V342.1z"/>
		<path class="st1" d="M970,341c0.3,0,0.5,0.1,0.8,0.3c0.2,0.2,0.3,0.4,0.4,0.8v2.3c0,0.3-0.1,0.6-0.3,0.8c-0.2,0.2-0.5,0.3-0.9,0.3
			h-9.7v29c0,0.3-0.1,0.5-0.3,0.7c-0.2,0.2-0.4,0.3-0.8,0.3h-2.4c-0.3,0-0.5-0.1-0.8-0.3c-0.2-0.2-0.3-0.5-0.3-0.8v-29h-9.7
			c-0.3,0-0.6-0.1-0.8-0.3c-0.2-0.2-0.3-0.5-0.3-0.9V342c0-0.3,0.1-0.6,0.3-0.8c0.2-0.2,0.4-0.3,0.8-0.3H970z"/>
		<path class="st1" d="M1000.4,341.5c0.1-0.3,0.4-0.5,0.7-0.5h3c0.4,0,0.7,0.1,0.8,0.2c0.1,0.1,0.2,0.3,0.2,0.5v0.3l-5.3,12.8
			l5.7,13.8l10.9-26.9c0.2-0.6,0.6-0.9,1.2-0.9h2.4c0.4,0,0.7,0.1,0.8,0.2c0.1,0.1,0.2,0.3,0.2,0.5v0.2l-13.6,32.6
			c0,0,0,0.1-0.1,0.2c0,0.1-0.1,0.2-0.2,0.3c-0.1,0.1-0.2,0.2-0.4,0.3c-0.2,0.1-0.3,0.2-0.5,0.2h-1.6c-0.4,0-0.7-0.1-0.9-0.3
			c-0.2-0.2-0.3-0.4-0.3-0.6l-6-14.3l-5.9,14.2c-0.1,0.3-0.2,0.5-0.4,0.7c-0.2,0.2-0.4,0.3-0.7,0.3h-1.7c-0.3,0-0.6-0.1-0.8-0.3
			c-0.2-0.2-0.3-0.4-0.4-0.6l-13.5-32.6c0,0,0-0.1,0-0.1c0-0.1,0-0.1,0-0.2c0-0.5,0.3-0.7,0.9-0.7h2.6c0.2,0,0.5,0.1,0.7,0.2
			c0.2,0.1,0.4,0.4,0.5,0.7l10.9,26.8L1000.4,341.5z"/>
		<path class="st1" d="M1028.8,374.7c-0.1,0.3-0.3,0.5-0.5,0.6c-0.2,0.1-0.5,0.2-0.8,0.2h-2.5c-0.7,0-1.1-0.3-1.1-0.8
			c0-0.1,0-0.2,0-0.3c0-0.1,0-0.1,0-0.2c0-0.1,0-0.1,0-0.2l13.4-32.3c0-0.1,0.1-0.2,0.1-0.3c0-0.1,0.1-0.2,0.2-0.3
			c0.1-0.1,0.2-0.2,0.3-0.2c0.1-0.1,0.3-0.1,0.6-0.1h1.5c0.2,0,0.4,0,0.6,0.1c0.1,0.1,0.3,0.1,0.3,0.2c0.1,0.1,0.1,0.2,0.2,0.3
			c0.1,0.1,0.1,0.2,0.1,0.3l13.3,32.3c0,0.1,0,0.1,0,0.2c0,0.1,0,0.1,0.1,0.2c0,0.1,0,0.1,0,0.2c0,0.5-0.4,0.8-1.1,0.8h-2.5
			c-0.3,0-0.6-0.1-0.8-0.2c-0.2-0.2-0.3-0.4-0.5-0.6l-2.6-6.4h-16.3c-0.6,1.4-1,2.6-1.5,3.7C1029.3,373.2,1029,374.1,1028.8,374.7z
			 M1033.1,363.8h12.7l-6.3-15.9L1033.1,363.8z"/>
		<path class="st1" d="M1060.2,342.1c0-0.7,0.3-1.1,1-1.1h13.4c1.6,0,3,0.3,4.3,0.9c1.3,0.6,2.5,1.4,3.5,2.4c1,1,1.8,2.2,2.3,3.5
			c0.6,1.3,0.8,2.8,0.8,4.3c0,1.1-0.1,2.1-0.5,3.1c-0.3,1-0.7,1.9-1.3,2.8c-0.5,0.8-1.2,1.6-2,2.3c-0.8,0.7-1.6,1.2-2.5,1.7
			l6.1,12.6v0.3c0,0.5-0.3,0.7-0.9,0.7h-2.8c-0.5,0-0.9-0.3-1.1-0.9l-5.6-11.7c-0.1,0-0.3,0-0.4,0c-0.1,0-0.4,0-0.6,0
			c-0.3,0-0.6,0-1.1,0c-0.4,0-1,0-1.8,0c-0.7,0-1.6,0-2.7,0c-1.1,0-2.4,0-3.9,0v11.5c0,0.7-0.4,1-1.1,1h-2.4c-0.7,0-1-0.3-1-1V342.1
			z M1081.2,352c0-0.8-0.2-1.7-0.5-2.5c-0.3-0.8-0.8-1.5-1.4-2.1c-0.6-0.6-1.3-1.1-2.1-1.5c-0.8-0.4-1.7-0.5-2.6-0.5h-9.9v13.1h10
			c0.9,0,1.8-0.2,2.6-0.5c0.8-0.4,1.5-0.8,2-1.4c0.6-0.6,1-1.3,1.4-2.1C1081.1,353.7,1081.2,352.9,1081.2,352z"/>
		<path class="st1" d="M1115.5,341c0.7,0,1.1,0.4,1.1,1.1v2.3c0,0.3-0.1,0.5-0.3,0.8c-0.2,0.2-0.5,0.3-0.8,0.3h-18.8v9.6h14.7
			c0.3,0,0.5,0.1,0.7,0.2c0.2,0.2,0.3,0.4,0.3,0.8v2.4c0,0.3-0.1,0.5-0.3,0.8c-0.2,0.2-0.4,0.3-0.8,0.3h-14.7V371h18.8
			c0.7,0,1.1,0.4,1.1,1.1v2.4c0,0.7-0.3,1-1,1h-22.4c-0.7,0-1-0.3-1-1v-32.5c0-0.7,0.4-1.1,1-1.1H1115.5z"/>
		<path class="st1" d="M1136.7,342.1c0-0.7,0.3-1.1,1.1-1.1h11.6c1.5,0,3,0.3,4.3,0.9c1.3,0.6,2.4,1.4,3.4,2.3c1,1,1.7,2.1,2.3,3.4
			c0.5,1.3,0.8,2.7,0.8,4.1c0,1.4-0.3,2.8-0.8,4.1c-0.5,1.3-1.3,2.4-2.2,3.4c-0.9,1-2.1,1.8-3.4,2.3c-1.3,0.6-2.7,0.9-4.2,0.9h-8.3
			v12c0,0.7-0.3,1-1,1h-2.4c-0.7,0-1-0.3-1-1V342.1z M1155.6,351.8c0-0.8-0.2-1.6-0.5-2.4c-0.3-0.8-0.8-1.4-1.3-2
			c-0.6-0.6-1.2-1.1-2-1.4c-0.8-0.3-1.6-0.5-2.5-0.5h-8.1v12.6h8.1c0.8,0,1.6-0.2,2.4-0.5c0.8-0.3,1.4-0.8,2-1.4
			c0.6-0.6,1-1.3,1.4-2C1155.5,353.4,1155.6,352.6,1155.6,351.8z"/>
		<path class="st1" d="M1165.8,374.7c-0.1,0.3-0.3,0.5-0.5,0.6c-0.2,0.1-0.5,0.2-0.8,0.2h-2.5c-0.7,0-1.1-0.3-1.1-0.8
			c0-0.1,0-0.2,0-0.3c0-0.1,0-0.1,0-0.2c0-0.1,0-0.1,0-0.2l13.4-32.3c0-0.1,0.1-0.2,0.1-0.3c0-0.1,0.1-0.2,0.2-0.3
			c0.1-0.1,0.2-0.2,0.3-0.2c0.2-0.1,0.4-0.1,0.6-0.1h1.5c0.2,0,0.4,0,0.6,0.1c0.1,0.1,0.3,0.1,0.3,0.2c0.1,0.1,0.1,0.2,0.2,0.3
			c0,0.1,0.1,0.2,0.1,0.3l13.3,32.3c0,0.1,0,0.1,0.1,0.2c0,0.1,0,0.1,0,0.2c0,0.1,0,0.1,0,0.2c0,0.5-0.4,0.8-1.1,0.8h-2.5
			c-0.3,0-0.6-0.1-0.8-0.2c-0.2-0.2-0.4-0.4-0.5-0.6l-2.6-6.4h-16.3c-0.5,1.4-1,2.6-1.5,3.7C1166.3,373.2,1166,374.1,1165.8,374.7z
			 M1170.1,363.8h12.7l-6.3-15.9L1170.1,363.8z"/>
		<path class="st1" d="M1197.2,342.1c0-0.7,0.4-1.1,1-1.1h13.4c1.6,0,3,0.3,4.3,0.9c1.3,0.6,2.5,1.4,3.5,2.4c1,1,1.8,2.2,2.3,3.5
			c0.6,1.3,0.9,2.8,0.9,4.3c0,1.1-0.2,2.1-0.5,3.1c-0.3,1-0.7,1.9-1.3,2.8c-0.5,0.8-1.2,1.6-2,2.3c-0.8,0.7-1.6,1.2-2.5,1.7
			l6.1,12.6v0.3c0,0.5-0.3,0.7-0.9,0.7h-2.8c-0.5,0-0.9-0.3-1.1-0.9l-5.6-11.7c-0.1,0-0.3,0-0.4,0c-0.2,0-0.4,0-0.6,0
			c-0.3,0-0.6,0-1.1,0c-0.5,0-1,0-1.8,0c-0.7,0-1.6,0-2.7,0c-1.1,0-2.4,0-3.9,0v11.5c0,0.7-0.4,1-1.1,1h-2.4c-0.7,0-1-0.3-1-1V342.1
			z M1218.2,352c0-0.8-0.2-1.7-0.5-2.5c-0.3-0.8-0.8-1.5-1.4-2.1c-0.6-0.6-1.3-1.1-2.1-1.5c-0.8-0.4-1.7-0.5-2.6-0.5h-9.9v13.1h10
			c0.9,0,1.8-0.2,2.6-0.5c0.8-0.4,1.5-0.8,2.1-1.4c0.6-0.6,1-1.3,1.3-2.1C1218,353.7,1218.2,352.9,1218.2,352z"/>
		<path class="st1" d="M1232,374.7c-0.1,0.3-0.3,0.5-0.5,0.6c-0.2,0.1-0.5,0.2-0.8,0.2h-2.5c-0.7,0-1.1-0.3-1.1-0.8
			c0-0.1,0-0.2,0-0.3c0-0.1,0-0.1,0-0.2c0-0.1,0-0.1,0.1-0.2l13.4-32.3c0-0.1,0.1-0.2,0.1-0.3c0.1-0.1,0.1-0.2,0.2-0.3
			c0.1-0.1,0.2-0.2,0.3-0.2c0.1-0.1,0.3-0.1,0.6-0.1h1.5c0.2,0,0.4,0,0.6,0.1c0.1,0.1,0.3,0.1,0.3,0.2c0.1,0.1,0.1,0.2,0.2,0.3
			c0,0.1,0.1,0.2,0.1,0.3l13.3,32.3c0,0.1,0,0.1,0,0.2c0,0.1,0,0.1,0,0.2c0,0.1,0,0.1,0,0.2c0,0.5-0.3,0.8-1.1,0.8h-2.5
			c-0.3,0-0.6-0.1-0.8-0.2c-0.2-0.2-0.4-0.4-0.5-0.6l-2.6-6.4h-16.3c-0.5,1.4-1,2.6-1.5,3.7C1232.6,373.2,1232.2,374.1,1232,374.7z
			 M1236.4,363.8h12.7l-6.3-15.9L1236.4,363.8z"/>
		<path class="st1" d="M1301.3,341c0.7,0,1.1,0.4,1.1,1.1v2.3c0,0.3-0.1,0.5-0.3,0.8c-0.2,0.2-0.5,0.3-0.8,0.3h-18.8v9.6h14.7
			c0.3,0,0.5,0.1,0.7,0.2c0.2,0.2,0.3,0.4,0.3,0.8v2.4c0,0.3-0.1,0.5-0.3,0.8c-0.2,0.2-0.4,0.3-0.8,0.3h-14.7V371h18.8
			c0.7,0,1.1,0.4,1.1,1.1v2.4c0,0.7-0.3,1-1,1h-22.4c-0.7,0-1-0.3-1-1v-32.5c0-0.7,0.3-1.1,1-1.1H1301.3z"/>
		<path class="st1" d="M1324.6,374.1c-0.3,0-0.6-0.3-0.9-0.9l-10.2-24.7l-2.7,26c0,0.7-0.3,1-1,1h-2.4c-0.7,0-1.1-0.3-1.1-1
			l3.7-32.5c0-0.3,0.1-0.6,0.4-0.8c0.2-0.2,0.5-0.3,0.8-0.3h3.6c0.5,0,0.8,0.3,1,0.9l10.1,24.7l10.2-24.7c0.1-0.3,0.2-0.5,0.4-0.6
			c0.2-0.2,0.3-0.2,0.6-0.2h3.7c0.3,0,0.6,0.1,0.8,0.3c0.2,0.2,0.3,0.4,0.3,0.7l3.7,32.5c0,0.7-0.3,1-1,1h-2.4c-0.7,0-1.1-0.3-1.1-1
			l-2.7-26l-10.3,24.7c-0.3,0.6-0.6,0.9-0.9,0.9H1324.6z"/>
		<path class="st1" d="M1351.1,342.1c0-0.7,0.3-1.1,1.1-1.1h11.6c1.5,0,3,0.3,4.3,0.9c1.3,0.6,2.5,1.4,3.4,2.3c1,1,1.7,2.1,2.3,3.4
			c0.5,1.3,0.8,2.7,0.8,4.1c0,1.4-0.3,2.8-0.8,4.1c-0.5,1.3-1.3,2.4-2.2,3.4c-0.9,1-2.1,1.8-3.4,2.3c-1.3,0.6-2.7,0.9-4.2,0.9h-8.3
			v12c0,0.7-0.3,1-1,1h-2.4c-0.7,0-1-0.3-1-1V342.1z M1370,351.8c0-0.8-0.2-1.6-0.5-2.4c-0.3-0.8-0.8-1.4-1.3-2
			c-0.6-0.6-1.2-1.1-2-1.4c-0.8-0.3-1.6-0.5-2.5-0.5h-8.1v12.6h8.1c0.8,0,1.6-0.2,2.4-0.5c0.8-0.3,1.4-0.8,2-1.4
			c0.6-0.6,1-1.3,1.3-2C1369.8,353.4,1370,352.6,1370,351.8z"/>
		<path class="st1" d="M1380.8,342.1c0-0.7,0.3-1.1,1-1.1h13.4c1.6,0,3,0.3,4.3,0.9c1.3,0.6,2.5,1.4,3.5,2.4c1,1,1.8,2.2,2.3,3.5
			c0.6,1.3,0.9,2.8,0.9,4.3c0,1.1-0.2,2.1-0.5,3.1c-0.3,1-0.7,1.9-1.3,2.8c-0.5,0.8-1.2,1.6-2,2.3c-0.7,0.7-1.6,1.2-2.5,1.7
			l6.1,12.6v0.3c0,0.5-0.3,0.7-0.9,0.7h-2.8c-0.5,0-0.8-0.3-1.1-0.9l-5.6-11.7c-0.1,0-0.3,0-0.4,0c-0.2,0-0.4,0-0.6,0
			c-0.3,0-0.6,0-1.1,0c-0.5,0-1,0-1.8,0c-0.7,0-1.6,0-2.7,0c-1.1,0-2.4,0-3.9,0v11.5c0,0.7-0.4,1-1.1,1h-2.4c-0.7,0-1-0.3-1-1V342.1
			z M1401.8,352c0-0.8-0.2-1.7-0.5-2.5c-0.3-0.8-0.8-1.5-1.4-2.1c-0.6-0.6-1.3-1.1-2.1-1.5c-0.8-0.4-1.7-0.5-2.6-0.5h-9.9v13.1h10
			c0.9,0,1.8-0.2,2.6-0.5c0.8-0.4,1.5-0.8,2.1-1.4c0.6-0.6,1-1.3,1.3-2.1C1401.6,353.7,1401.8,352.9,1401.8,352z"/>
		<path class="st1" d="M1436.1,341c0.7,0,1.1,0.4,1.1,1.1v2.3c0,0.3-0.1,0.5-0.3,0.8c-0.2,0.2-0.5,0.3-0.9,0.3h-18.8v9.6h14.8
			c0.3,0,0.5,0.1,0.7,0.2c0.2,0.2,0.3,0.4,0.3,0.8v2.4c0,0.3-0.1,0.5-0.2,0.8c-0.2,0.2-0.4,0.3-0.8,0.3h-14.8V371h18.8
			c0.7,0,1.1,0.4,1.1,1.1v2.4c0,0.7-0.3,1-1,1h-22.4c-0.7,0-1-0.3-1-1v-32.5c0-0.7,0.3-1.1,1-1.1H1436.1z"/>
		<path class="st1" d="M1462.5,348.5c-0.2-0.1-0.6-0.4-1.1-0.8c-0.5-0.4-1.1-0.8-1.8-1.2c-0.7-0.4-1.5-0.8-2.4-1.1
			c-0.9-0.3-1.9-0.5-2.9-0.5c-1.2,0-2.3,0.1-3.2,0.4c-0.9,0.3-1.6,0.7-2.2,1.2c-0.6,0.5-1,1-1.3,1.7c-0.3,0.6-0.4,1.2-0.4,1.9
			c0,0.9,0.3,1.6,0.9,2.2c0.6,0.6,1.3,1.1,2.3,1.5c0.9,0.4,2,0.8,3.2,1.2c1.2,0.4,2.4,0.7,3.7,1.1c1.2,0.4,2.5,0.8,3.7,1.3
			c1.2,0.5,2.3,1.1,3.2,1.8c0.9,0.7,1.7,1.6,2.3,2.6c0.6,1,0.9,2.2,0.9,3.6c0,1.6-0.3,3.1-1,4.4c-0.7,1.3-1.6,2.5-2.8,3.4
			c-1.2,0.9-2.5,1.7-4.1,2.2c-1.6,0.5-3.3,0.8-5.1,0.8c-1.2,0-2.4-0.1-3.6-0.4c-1.2-0.3-2.3-0.7-3.4-1.2c-1.1-0.5-2.1-1.2-3-1.9
			c-1-0.7-1.8-1.6-2.5-2.6c-0.2-0.2-0.3-0.5-0.3-0.7c0-0.3,0.2-0.5,0.4-0.7l1.8-1.5c0.3-0.2,0.5-0.3,0.8-0.3c0.3,0,0.5,0.2,0.7,0.4
			l0.3,0.3c0.6,0.7,1.4,1.4,2.2,1.9c0.8,0.5,1.7,1,2.5,1.3c0.8,0.3,1.6,0.6,2.4,0.8c0.8,0.2,1.4,0.3,1.9,0.3c1,0,1.9-0.1,2.9-0.4
			c1-0.3,1.9-0.6,2.7-1.1c0.8-0.5,1.5-1.2,2-2c0.5-0.8,0.8-1.7,0.8-2.8c0-0.9-0.3-1.6-0.8-2.2c-0.5-0.6-1.2-1.1-2.1-1.6
			c-0.9-0.4-1.9-0.9-3.1-1.2c-1.2-0.4-2.5-0.8-3.8-1.2c-1.9-0.5-3.5-1.1-4.8-1.7c-1.3-0.6-2.4-1.3-3.3-2c-0.9-0.7-1.5-1.5-1.9-2.4
			c-0.4-0.9-0.6-1.9-0.6-3c0-1.4,0.3-2.7,0.8-3.9c0.6-1.2,1.4-2.2,2.4-3c1-0.8,2.3-1.5,3.8-2c1.5-0.5,3.1-0.7,4.9-0.7
			c1,0,2,0.1,3,0.4c1.1,0.2,2.1,0.6,3.1,1c1,0.5,1.9,1,2.8,1.6c0.9,0.6,1.6,1.3,2.3,2c0.2,0.2,0.3,0.5,0.3,0.7
			c0,0.3-0.1,0.5-0.4,0.7l-1.7,1.6c-0.2,0.2-0.5,0.4-0.8,0.3C1463,348.9,1462.8,348.8,1462.5,348.5z"/>
		<path class="st1" d="M1476.5,374.7c-0.1,0.3-0.3,0.5-0.5,0.6c-0.2,0.1-0.5,0.2-0.8,0.2h-2.5c-0.7,0-1.1-0.3-1.1-0.8
			c0-0.1,0-0.2,0-0.3c0-0.1,0-0.1,0-0.2c0-0.1,0-0.1,0-0.2l13.4-32.3c0-0.1,0.1-0.2,0.1-0.3c0-0.1,0.1-0.2,0.2-0.3
			c0.1-0.1,0.2-0.2,0.3-0.2c0.1-0.1,0.3-0.1,0.6-0.1h1.5c0.2,0,0.4,0,0.6,0.1c0.1,0.1,0.3,0.1,0.3,0.2c0.1,0.1,0.1,0.2,0.2,0.3
			c0,0.1,0.1,0.2,0.1,0.3l13.3,32.3c0,0.1,0,0.1,0.1,0.2c0,0.1,0,0.1,0.1,0.2c0,0.1,0,0.1,0,0.2c0,0.5-0.4,0.8-1.1,0.8h-2.5
			c-0.3,0-0.6-0.1-0.8-0.2c-0.2-0.2-0.4-0.4-0.5-0.6l-2.6-6.4H1479c-0.5,1.4-1,2.6-1.5,3.7C1477,373.2,1476.7,374.1,1476.5,374.7z
			 M1480.8,363.8h12.7l-6.3-15.9L1480.8,363.8z"/>
		<path class="st1" d="M1526.2,348.5c-0.2-0.1-0.6-0.4-1.1-0.8c-0.5-0.4-1.1-0.8-1.8-1.2c-0.7-0.4-1.5-0.8-2.4-1.1
			c-0.9-0.3-1.9-0.5-2.9-0.5c-1.2,0-2.3,0.1-3.2,0.4c-0.9,0.3-1.6,0.7-2.2,1.2c-0.6,0.5-1,1-1.3,1.7c-0.3,0.6-0.4,1.2-0.4,1.9
			c0,0.9,0.3,1.6,0.9,2.2c0.6,0.6,1.3,1.1,2.3,1.5c0.9,0.4,2,0.8,3.2,1.2c1.2,0.4,2.4,0.7,3.7,1.1c1.3,0.4,2.5,0.8,3.7,1.3
			c1.2,0.5,2.3,1.1,3.2,1.8c1,0.7,1.7,1.6,2.3,2.6c0.6,1,0.9,2.2,0.9,3.6c0,1.6-0.3,3.1-1,4.4c-0.7,1.3-1.6,2.5-2.8,3.4
			c-1.2,0.9-2.5,1.7-4.1,2.2c-1.6,0.5-3.3,0.8-5.1,0.8c-1.2,0-2.4-0.1-3.6-0.4c-1.2-0.3-2.3-0.7-3.4-1.2c-1.1-0.5-2.1-1.2-3.1-1.9
			c-0.9-0.7-1.8-1.6-2.5-2.6c-0.2-0.2-0.3-0.5-0.3-0.7c0-0.3,0.1-0.5,0.4-0.7l1.8-1.5c0.3-0.2,0.5-0.3,0.8-0.3
			c0.2,0,0.5,0.2,0.7,0.4l0.3,0.3c0.6,0.7,1.4,1.4,2.2,1.9c0.8,0.5,1.7,1,2.5,1.3c0.8,0.3,1.6,0.6,2.4,0.8c0.7,0.2,1.4,0.3,1.9,0.3
			c0.9,0,1.9-0.1,2.9-0.4c1-0.3,1.9-0.6,2.7-1.1c0.8-0.5,1.5-1.2,2-2c0.5-0.8,0.8-1.7,0.8-2.8c0-0.9-0.3-1.6-0.8-2.2
			c-0.5-0.6-1.2-1.1-2.1-1.6c-0.9-0.4-1.9-0.9-3.1-1.2c-1.2-0.4-2.5-0.8-3.8-1.2c-1.9-0.5-3.5-1.1-4.8-1.7c-1.3-0.6-2.4-1.3-3.3-2
			c-0.9-0.7-1.5-1.5-1.9-2.4c-0.4-0.9-0.6-1.9-0.6-3c0-1.4,0.3-2.7,0.9-3.9c0.6-1.2,1.4-2.2,2.4-3c1-0.8,2.3-1.5,3.8-2
			c1.5-0.5,3.1-0.7,4.9-0.7c1,0,2,0.1,3,0.4c1.1,0.2,2.1,0.6,3.1,1c1,0.5,1.9,1,2.8,1.6c0.9,0.6,1.6,1.3,2.3,2
			c0.2,0.2,0.3,0.5,0.3,0.7c0,0.3-0.1,0.5-0.4,0.7l-1.7,1.6c-0.2,0.2-0.5,0.4-0.7,0.3C1526.7,348.9,1526.4,348.8,1526.2,348.5z"/>
	</g>
	<g>
		<path class="st0" d="M896.2,204l-22.3,22.3c6.2,6.2,10,14.7,10,24.1c0,18.8-15.2,34-34,34c-18.8,0-34-15.2-34-34
			c0-9.4,3.8-17.9,10-24.1l-22.3-22.3c-11.9,11.9-19.2,28.3-19.2,46.4c0,36.2,29.4,65.6,65.6,65.6c36.2,0,65.6-29.4,65.6-65.6
			C915.4,232.2,908.1,215.8,896.2,204z"/>
		<path class="st1" d="M849.8,216.3c9.4,0,17.9,3.8,24.1,10l22.3-22.3c-11.9-11.9-28.3-19.2-46.4-19.2c-18.1,0-34.5,7.3-46.3,19.2
			l22.3,22.3C831.9,220.1,840.4,216.3,849.8,216.3z"/>
	</g>
</g>
</svg>
